<svg xmlns="http://www.w3.org/2000/svg" viewBox="0 0 100 100" fill="none">
  <!-- SoupFinance Favicon - Bowl with SF Steam -->
  <!-- Bowl - Main Body -->
  <path d="M20 55 Q20 78 50 80 Q80 78 80 55 L77 55 Q75 72 50 74 Q25 72 23 55 Z" fill="#4a4a4a"/>
  <!-- Bowl - Rim/Top -->
  <ellipse cx="50" cy="55" rx="30" ry="8" fill="#4a4a4a"/>
  <!-- Bowl - Base/Foot -->
  <path d="M38 80 Q50 82 62 80 L60 86 Q50 88 40 86 Z" fill="#4a4a4a"/>
  <!-- Bowl Rim Highlight -->
  <path d="M28 52 Q50 60 72 52" stroke="white" stroke-width="2" fill="none" stroke-linecap="round" opacity="0.7"/>
  <!-- Steam S - Swirly left wisp -->
  <path d="M30 38 C30 30 40 26 44 32 C48 38 36 42 40 48" stroke="#f24a0d" stroke-width="6" fill="none" stroke-linecap="round" stroke-linejoin="round"/>
  <!-- Steam S - Main S curve -->
  <path d="M38 28 C38 16 54 12 58 22 C62 32 46 36 50 46" stroke="#f24a0d" stroke-width="6" fill="none" stroke-linecap="round" stroke-linejoin="round"/>
  <!-- Steam F - Vertical stroke -->
  <path d="M58 8 L58 44" stroke="#f24a0d" stroke-width="6" fill="none" stroke-linecap="round"/>
  <!-- Steam F - Top horizontal -->
  <path d="M58 8 L74 8" stroke="#f24a0d" stroke-width="6" fill="none" stroke-linecap="round"/>
  <!-- Steam F - Middle horizontal -->
  <path d="M58 24 L70 24" stroke="#f24a0d" stroke-width="6" fill="none" stroke-linecap="round"/>
</svg>
